<svg width="1920" height="863" viewBox="0 0 1920 863" fill="none" xmlns="http://www.w3.org/2000/svg">
<rect width="1920" height="863" fill="#F1F1F1"/>
<circle cx="486" cy="175" r="115" fill="#FFFAFA"/>
<path d="M515.472 158.544V192H511.104V176.832H494.064V192H489.696V158.544H494.064V173.232H511.104V158.544H515.472ZM521.298 178.752C521.298 176.064 521.842 173.712 522.93 171.696C524.018 169.648 525.506 168.064 527.394 166.944C529.314 165.824 531.442 165.264 533.778 165.264C536.082 165.264 538.082 165.76 539.778 166.752C541.474 167.744 542.738 168.992 543.57 170.496V165.696H547.986V192H543.57V187.104C542.706 188.64 541.41 189.92 539.682 190.944C537.986 191.936 536.002 192.432 533.73 192.432C531.394 192.432 529.282 191.856 527.394 190.704C525.506 189.552 524.018 187.936 522.93 185.856C521.842 183.776 521.298 181.408 521.298 178.752ZM543.57 178.8C543.57 176.816 543.17 175.088 542.37 173.616C541.57 172.144 540.482 171.024 539.106 170.256C537.762 169.456 536.274 169.056 534.642 169.056C533.01 169.056 531.522 169.44 530.178 170.208C528.834 170.976 527.762 172.096 526.962 173.568C526.162 175.04 525.762 176.768 525.762 178.752C525.762 180.768 526.162 182.528 526.962 184.032C527.762 185.504 528.834 186.64 530.178 187.44C531.522 188.208 533.01 188.592 534.642 188.592C536.274 188.592 537.762 188.208 539.106 187.44C540.482 186.64 541.57 185.504 542.37 184.032C543.17 182.528 543.57 180.784 543.57 178.8ZM559.736 169.968C560.504 168.464 561.592 167.296 563 166.464C564.44 165.632 566.184 165.216 568.232 165.216V169.728H567.08C562.184 169.728 559.736 172.384 559.736 177.696V192H555.368V165.696H559.736V169.968ZM571.642 178.752C571.642 176.064 572.186 173.712 573.274 171.696C574.362 169.648 575.85 168.064 577.738 166.944C579.658 165.824 581.802 165.264 584.17 165.264C586.218 165.264 588.122 165.744 589.882 166.704C591.642 167.632 592.986 168.864 593.914 170.4V156.48H598.33V192H593.914V187.056C593.05 188.624 591.77 189.92 590.074 190.944C588.378 191.936 586.394 192.432 584.122 192.432C581.786 192.432 579.658 191.856 577.738 190.704C575.85 189.552 574.362 187.936 573.274 185.856C572.186 183.776 571.642 181.408 571.642 178.752ZM593.914 178.8C593.914 176.816 593.514 175.088 592.714 173.616C591.914 172.144 590.826 171.024 589.45 170.256C588.106 169.456 586.618 169.056 584.986 169.056C583.354 169.056 581.866 169.44 580.522 170.208C579.178 170.976 578.106 172.096 577.306 173.568C576.506 175.04 576.106 176.768 576.106 178.752C576.106 180.768 576.506 182.528 577.306 184.032C578.106 185.504 579.178 186.64 580.522 187.44C581.866 188.208 583.354 188.592 584.986 188.592C586.618 188.592 588.106 188.208 589.45 187.44C590.826 186.64 591.914 185.504 592.714 184.032C593.514 182.528 593.914 180.784 593.914 178.8ZM660.557 158.544L650.861 192H645.965L638.189 165.072L630.125 192L625.277 192.048L615.917 158.544H620.573L627.869 186.912L635.933 158.544H640.829L648.509 186.816L655.853 158.544H660.557ZM676.809 192.432C674.345 192.432 672.105 191.872 670.089 190.752C668.105 189.632 666.537 188.048 665.385 186C664.265 183.92 663.705 181.52 663.705 178.8C663.705 176.112 664.281 173.744 665.433 171.696C666.617 169.616 668.217 168.032 670.233 166.944C672.249 165.824 674.505 165.264 677.001 165.264C679.497 165.264 681.753 165.824 683.769 166.944C685.785 168.032 687.369 169.6 688.521 171.648C689.705 173.696 690.297 176.08 690.297 178.8C690.297 181.52 689.689 183.92 688.473 186C687.289 188.048 685.673 189.632 683.625 190.752C681.577 191.872 679.305 192.432 676.809 192.432ZM676.809 188.592C678.377 188.592 679.849 188.224 681.225 187.488C682.601 186.752 683.705 185.648 684.537 184.176C685.401 182.704 685.833 180.912 685.833 178.8C685.833 176.688 685.417 174.896 684.585 173.424C683.753 171.952 682.665 170.864 681.321 170.16C679.977 169.424 678.521 169.056 676.953 169.056C675.353 169.056 673.881 169.424 672.537 170.16C671.225 170.864 670.169 171.952 669.369 173.424C668.569 174.896 668.169 176.688 668.169 178.8C668.169 180.944 668.553 182.752 669.321 184.224C670.121 185.696 671.177 186.8 672.489 187.536C673.801 188.24 675.241 188.592 676.809 188.592ZM700.408 169.968C701.176 168.464 702.264 167.296 703.672 166.464C705.112 165.632 706.856 165.216 708.904 165.216V169.728H707.752C702.856 169.728 700.408 172.384 700.408 177.696V192H696.04V165.696H700.408V169.968ZM728.634 192L718.314 180.384V192H713.946V156.48H718.314V177.36L728.442 165.696H734.538L722.154 178.8L734.586 192H728.634Z" fill="black"/>
<circle cx="758" cy="629" r="200" fill="white"/>
<circle cx="1138" cy="211" r="175" fill="#FFFEFE"/>
<circle cx="1366" cy="632" r="144" fill="#F1F6F8"/>
<path d="M518.064 612.544V646H513.696V612.544H518.064ZM538.325 619.216C541.525 619.216 544.117 620.192 546.101 622.144C548.085 624.064 549.077 626.848 549.077 630.496V646H544.757V631.12C544.757 628.496 544.101 626.496 542.789 625.12C541.477 623.712 539.685 623.008 537.413 623.008C535.109 623.008 533.269 623.728 531.893 625.168C530.549 626.608 529.877 628.704 529.877 631.456V646H525.509V619.696H529.877V623.44C530.741 622.096 531.909 621.056 533.381 620.32C534.885 619.584 536.533 619.216 538.325 619.216ZM561.54 623.296V638.8C561.54 640.08 561.812 640.992 562.356 641.536C562.9 642.048 563.844 642.304 565.188 642.304H568.404V646H564.468C562.036 646 560.212 645.44 558.996 644.32C557.78 643.2 557.172 641.36 557.172 638.8V623.296H553.764V619.696H557.172V613.072H561.54V619.696H568.404V623.296H561.54ZM597.696 631.84C597.696 632.672 597.648 633.552 597.552 634.48H576.528C576.688 637.072 577.568 639.104 579.168 640.576C580.8 642.016 582.768 642.736 585.072 642.736C586.96 642.736 588.528 642.304 589.776 641.44C591.056 640.544 591.952 639.36 592.464 637.888H597.168C596.464 640.416 595.056 642.48 592.944 644.08C590.832 645.648 588.208 646.432 585.072 646.432C582.576 646.432 580.336 645.872 578.352 644.752C576.4 643.632 574.864 642.048 573.744 640C572.624 637.92 572.064 635.52 572.064 632.8C572.064 630.08 572.608 627.696 573.696 625.648C574.784 623.6 576.304 622.032 578.256 620.944C580.24 619.824 582.512 619.264 585.072 619.264C587.568 619.264 589.776 619.808 591.696 620.896C593.616 621.984 595.088 623.488 596.112 625.408C597.168 627.296 597.696 629.44 597.696 631.84ZM593.184 630.928C593.184 629.264 592.816 627.84 592.08 626.656C591.344 625.44 590.336 624.528 589.056 623.92C587.808 623.28 586.416 622.96 584.88 622.96C582.672 622.96 580.784 623.664 579.216 625.072C577.68 626.48 576.8 628.432 576.576 630.928H593.184ZM607.83 623.968C608.598 622.464 609.686 621.296 611.094 620.464C612.534 619.632 614.278 619.216 616.326 619.216V623.728H615.174C610.278 623.728 607.83 626.384 607.83 631.696V646H603.462V619.696H607.83V623.968ZM632.216 619.264C634.488 619.264 636.472 619.76 638.168 620.752C639.896 621.744 641.176 622.992 642.008 624.496V619.696H646.424V646.576C646.424 648.976 645.912 651.104 644.888 652.96C643.864 654.848 642.392 656.32 640.472 657.376C638.584 658.432 636.376 658.96 633.848 658.96C630.392 658.96 627.512 658.144 625.208 656.512C622.904 654.88 621.544 652.656 621.128 649.84H625.448C625.928 651.44 626.92 652.72 628.424 653.68C629.928 654.672 631.736 655.168 633.848 655.168C636.248 655.168 638.2 654.416 639.704 652.912C641.24 651.408 642.008 649.296 642.008 646.576V641.056C641.144 642.592 639.864 643.872 638.168 644.896C636.472 645.92 634.488 646.432 632.216 646.432C629.88 646.432 627.752 645.856 625.832 644.704C623.944 643.552 622.456 641.936 621.368 639.856C620.28 637.776 619.736 635.408 619.736 632.752C619.736 630.064 620.28 627.712 621.368 625.696C622.456 623.648 623.944 622.064 625.832 620.944C627.752 619.824 629.88 619.264 632.216 619.264ZM642.008 632.8C642.008 630.816 641.608 629.088 640.808 627.616C640.008 626.144 638.92 625.024 637.544 624.256C636.2 623.456 634.712 623.056 633.08 623.056C631.448 623.056 629.96 623.44 628.616 624.208C627.272 624.976 626.2 626.096 625.4 627.568C624.6 629.04 624.2 630.768 624.2 632.752C624.2 634.768 624.6 636.528 625.4 638.032C626.2 639.504 627.272 640.64 628.616 641.44C629.96 642.208 631.448 642.592 633.08 642.592C634.712 642.592 636.2 642.208 637.544 641.44C638.92 640.64 640.008 639.504 640.808 638.032C641.608 636.528 642.008 634.784 642.008 632.8ZM658.173 623.968C658.941 622.464 660.029 621.296 661.437 620.464C662.877 619.632 664.621 619.216 666.669 619.216V623.728H665.517C660.621 623.728 658.173 626.384 658.173 631.696V646H653.805V619.696H658.173V623.968ZM673.968 615.424C673.136 615.424 672.432 615.136 671.856 614.56C671.28 613.984 670.992 613.28 670.992 612.448C670.992 611.616 671.28 610.912 671.856 610.336C672.432 609.76 673.136 609.472 673.968 609.472C674.768 609.472 675.44 609.76 675.984 610.336C676.56 610.912 676.848 611.616 676.848 612.448C676.848 613.28 676.56 613.984 675.984 614.56C675.44 615.136 674.768 615.424 673.968 615.424ZM676.08 619.696V646H671.712V619.696H676.08ZM688.852 623.296V638.8C688.852 640.08 689.124 640.992 689.668 641.536C690.212 642.048 691.156 642.304 692.5 642.304H695.716V646H691.78C689.348 646 687.524 645.44 686.308 644.32C685.092 643.2 684.484 641.36 684.484 638.8V623.296H681.076V619.696H684.484V613.072H688.852V619.696H695.716V623.296H688.852ZM723.665 619.696L707.825 658.384H703.312L708.497 645.712L697.889 619.696H702.737L710.993 641.008L719.153 619.696H723.665ZM729.447 646.288C728.615 646.288 727.911 646 727.335 645.424C726.759 644.848 726.471 644.144 726.471 643.312C726.471 642.48 726.759 641.776 727.335 641.2C727.911 640.624 728.615 640.336 729.447 640.336C730.247 640.336 730.919 640.624 731.463 641.2C732.039 641.776 732.327 642.48 732.327 643.312C732.327 644.144 732.039 644.848 731.463 645.424C730.919 646 730.247 646.288 729.447 646.288Z" fill="black"/>
<path d="M1065.06 274.336C1065.06 277.12 1064.1 279.44 1062.18 281.296C1060.3 283.12 1057.4 284.032 1053.5 284.032H1047.06V298H1042.7V264.544H1053.5C1057.27 264.544 1060.14 265.456 1062.09 267.28C1064.07 269.104 1065.06 271.456 1065.06 274.336ZM1053.5 280.432C1055.93 280.432 1057.72 279.904 1058.87 278.848C1060.02 277.792 1060.6 276.288 1060.6 274.336C1060.6 270.208 1058.23 268.144 1053.5 268.144H1047.06V280.432H1053.5ZM1068.86 284.752C1068.86 282.064 1069.4 279.712 1070.49 277.696C1071.58 275.648 1073.07 274.064 1074.96 272.944C1076.88 271.824 1079 271.264 1081.34 271.264C1083.64 271.264 1085.64 271.76 1087.34 272.752C1089.04 273.744 1090.3 274.992 1091.13 276.496V271.696H1095.55V298H1091.13V293.104C1090.27 294.64 1088.97 295.92 1087.24 296.944C1085.55 297.936 1083.56 298.432 1081.29 298.432C1078.96 298.432 1076.84 297.856 1074.96 296.704C1073.07 295.552 1071.58 293.936 1070.49 291.856C1069.4 289.776 1068.86 287.408 1068.86 284.752ZM1091.13 284.8C1091.13 282.816 1090.73 281.088 1089.93 279.616C1089.13 278.144 1088.04 277.024 1086.67 276.256C1085.32 275.456 1083.84 275.056 1082.2 275.056C1080.57 275.056 1079.08 275.44 1077.74 276.208C1076.4 276.976 1075.32 278.096 1074.52 279.568C1073.72 281.04 1073.32 282.768 1073.32 284.752C1073.32 286.768 1073.72 288.528 1074.52 290.032C1075.32 291.504 1076.4 292.64 1077.74 293.44C1079.08 294.208 1080.57 294.592 1082.2 294.592C1083.84 294.592 1085.32 294.208 1086.67 293.44C1088.04 292.64 1089.13 291.504 1089.93 290.032C1090.73 288.528 1091.13 286.784 1091.13 284.8ZM1112.24 298.432C1110.23 298.432 1108.42 298.096 1106.82 297.424C1105.22 296.72 1103.95 295.76 1103.03 294.544C1102.1 293.296 1101.59 291.872 1101.49 290.272H1106C1106.13 291.584 1106.74 292.656 1107.83 293.488C1108.95 294.32 1110.4 294.736 1112.19 294.736C1113.86 294.736 1115.17 294.368 1116.13 293.632C1117.09 292.896 1117.57 291.968 1117.57 290.848C1117.57 289.696 1117.06 288.848 1116.03 288.304C1115.01 287.728 1113.43 287.168 1111.28 286.624C1109.33 286.112 1107.73 285.6 1106.48 285.088C1105.27 284.544 1104.21 283.76 1103.31 282.736C1102.45 281.68 1102.02 280.304 1102.02 278.608C1102.02 277.264 1102.42 276.032 1103.22 274.912C1104.02 273.792 1105.15 272.912 1106.63 272.272C1108.1 271.6 1109.78 271.264 1111.67 271.264C1114.58 271.264 1116.93 272 1118.72 273.472C1120.51 274.944 1121.47 276.96 1121.6 279.52H1117.23C1117.14 278.144 1116.58 277.04 1115.55 276.208C1114.56 275.376 1113.22 274.96 1111.52 274.96C1109.95 274.96 1108.71 275.296 1107.78 275.968C1106.85 276.64 1106.39 277.52 1106.39 278.608C1106.39 279.472 1106.66 280.192 1107.2 280.768C1107.78 281.312 1108.48 281.76 1109.31 282.112C1110.18 282.432 1111.36 282.8 1112.87 283.216C1114.75 283.728 1116.29 284.24 1117.47 284.752C1118.66 285.232 1119.67 285.968 1120.5 286.96C1121.36 287.952 1121.81 289.248 1121.84 290.848C1121.84 292.288 1121.44 293.584 1120.64 294.736C1119.84 295.888 1118.71 296.8 1117.23 297.472C1115.79 298.112 1114.13 298.432 1112.24 298.432ZM1137.32 298.432C1135.3 298.432 1133.5 298.096 1131.9 297.424C1130.3 296.72 1129.03 295.76 1128.1 294.544C1127.18 293.296 1126.66 291.872 1126.57 290.272H1131.08C1131.21 291.584 1131.82 292.656 1132.9 293.488C1134.02 294.32 1135.48 294.736 1137.27 294.736C1138.94 294.736 1140.25 294.368 1141.21 293.632C1142.17 292.896 1142.65 291.968 1142.65 290.848C1142.65 289.696 1142.14 288.848 1141.11 288.304C1140.09 287.728 1138.5 287.168 1136.36 286.624C1134.41 286.112 1132.81 285.6 1131.56 285.088C1130.34 284.544 1129.29 283.76 1128.39 282.736C1127.53 281.68 1127.1 280.304 1127.1 278.608C1127.1 277.264 1127.5 276.032 1128.3 274.912C1129.1 273.792 1130.23 272.912 1131.7 272.272C1133.18 271.6 1134.86 271.264 1136.74 271.264C1139.66 271.264 1142.01 272 1143.8 273.472C1145.59 274.944 1146.55 276.96 1146.68 279.52H1142.31C1142.22 278.144 1141.66 277.04 1140.63 276.208C1139.64 275.376 1138.3 274.96 1136.6 274.96C1135.03 274.96 1133.78 275.296 1132.86 275.968C1131.93 276.64 1131.46 277.52 1131.46 278.608C1131.46 279.472 1131.74 280.192 1132.28 280.768C1132.86 281.312 1133.56 281.76 1134.39 282.112C1135.26 282.432 1136.44 282.8 1137.94 283.216C1139.83 283.728 1141.37 284.24 1142.55 284.752C1143.74 285.232 1144.74 285.968 1145.58 286.96C1146.44 287.952 1146.89 289.248 1146.92 290.848C1146.92 292.288 1146.52 293.584 1145.72 294.736C1144.92 295.888 1143.78 296.8 1142.31 297.472C1140.87 298.112 1139.21 298.432 1137.32 298.432ZM1155.34 267.424C1154.51 267.424 1153.81 267.136 1153.23 266.56C1152.65 265.984 1152.37 265.28 1152.37 264.448C1152.37 263.616 1152.65 262.912 1153.23 262.336C1153.81 261.76 1154.51 261.472 1155.34 261.472C1156.14 261.472 1156.81 261.76 1157.36 262.336C1157.93 262.912 1158.22 263.616 1158.22 264.448C1158.22 265.28 1157.93 265.984 1157.36 266.56C1156.81 267.136 1156.14 267.424 1155.34 267.424ZM1157.45 271.696V298H1153.09V271.696H1157.45ZM1176.37 298.432C1173.91 298.432 1171.67 297.872 1169.65 296.752C1167.67 295.632 1166.1 294.048 1164.95 292C1163.83 289.92 1163.27 287.52 1163.27 284.8C1163.27 282.112 1163.84 279.744 1165 277.696C1166.18 275.616 1167.78 274.032 1169.8 272.944C1171.81 271.824 1174.07 271.264 1176.56 271.264C1179.06 271.264 1181.32 271.824 1183.33 272.944C1185.35 274.032 1186.93 275.6 1188.08 277.648C1189.27 279.696 1189.86 282.08 1189.86 284.8C1189.86 287.52 1189.25 289.92 1188.04 292C1186.85 294.048 1185.24 295.632 1183.19 296.752C1181.14 297.872 1178.87 298.432 1176.37 298.432ZM1176.37 294.592C1177.94 294.592 1179.41 294.224 1180.79 293.488C1182.16 292.752 1183.27 291.648 1184.1 290.176C1184.96 288.704 1185.4 286.912 1185.4 284.8C1185.4 282.688 1184.98 280.896 1184.15 279.424C1183.32 277.952 1182.23 276.864 1180.88 276.16C1179.54 275.424 1178.08 275.056 1176.52 275.056C1174.92 275.056 1173.44 275.424 1172.1 276.16C1170.79 276.864 1169.73 277.952 1168.93 279.424C1168.13 280.896 1167.73 282.688 1167.73 284.8C1167.73 286.944 1168.12 288.752 1168.88 290.224C1169.68 291.696 1170.74 292.8 1172.05 293.536C1173.36 294.24 1174.8 294.592 1176.37 294.592ZM1208.42 271.216C1211.62 271.216 1214.21 272.192 1216.19 274.144C1218.18 276.064 1219.17 278.848 1219.17 282.496V298H1214.85V283.12C1214.85 280.496 1214.19 278.496 1212.88 277.12C1211.57 275.712 1209.78 275.008 1207.51 275.008C1205.2 275.008 1203.36 275.728 1201.99 277.168C1200.64 278.608 1199.97 280.704 1199.97 283.456V298H1195.6V271.696H1199.97V275.44C1200.83 274.096 1202 273.056 1203.47 272.32C1204.98 271.584 1206.63 271.216 1208.42 271.216ZM1227.7 298.288C1226.87 298.288 1226.16 298 1225.59 297.424C1225.01 296.848 1224.72 296.144 1224.72 295.312C1224.72 294.48 1225.01 293.776 1225.59 293.2C1226.16 292.624 1226.87 292.336 1227.7 292.336C1228.5 292.336 1229.17 292.624 1229.71 293.2C1230.29 293.776 1230.58 294.48 1230.58 295.312C1230.58 296.144 1230.29 296.848 1229.71 297.424C1229.17 298 1228.5 298.288 1227.7 298.288Z" fill="black"/>
<path d="M1315.06 645.448H1326.78V649H1310.7V615.544H1315.06V645.448ZM1342.89 649.432C1340.42 649.432 1338.18 648.872 1336.17 647.752C1334.18 646.632 1332.61 645.048 1331.46 643C1330.34 640.92 1329.78 638.52 1329.78 635.8C1329.78 633.112 1330.36 630.744 1331.51 628.696C1332.69 626.616 1334.29 625.032 1336.31 623.944C1338.33 622.824 1340.58 622.264 1343.08 622.264C1345.57 622.264 1347.83 622.824 1349.85 623.944C1351.86 625.032 1353.45 626.6 1354.6 628.648C1355.78 630.696 1356.37 633.08 1356.37 635.8C1356.37 638.52 1355.77 640.92 1354.55 643C1353.37 645.048 1351.75 646.632 1349.7 647.752C1347.65 648.872 1345.38 649.432 1342.89 649.432ZM1342.89 645.592C1344.45 645.592 1345.93 645.224 1347.3 644.488C1348.68 643.752 1349.78 642.648 1350.61 641.176C1351.48 639.704 1351.91 637.912 1351.91 635.8C1351.91 633.688 1351.49 631.896 1350.66 630.424C1349.83 628.952 1348.74 627.864 1347.4 627.16C1346.05 626.424 1344.6 626.056 1343.03 626.056C1341.43 626.056 1339.96 626.424 1338.61 627.16C1337.3 627.864 1336.25 628.952 1335.45 630.424C1334.65 631.896 1334.25 633.688 1334.25 635.8C1334.25 637.944 1334.63 639.752 1335.4 641.224C1336.2 642.696 1337.25 643.8 1338.57 644.536C1339.88 645.24 1341.32 645.592 1342.89 645.592ZM1371.91 644.968L1380.07 622.696H1384.73L1374.41 649H1369.32L1359 622.696H1363.7L1371.91 644.968ZM1413.02 634.84C1413.02 635.672 1412.98 636.552 1412.88 637.48H1391.86C1392.02 640.072 1392.9 642.104 1394.5 643.576C1396.13 645.016 1398.1 645.736 1400.4 645.736C1402.29 645.736 1403.86 645.304 1405.1 644.44C1406.38 643.544 1407.28 642.36 1407.79 640.888H1412.5C1411.79 643.416 1410.38 645.48 1408.27 647.08C1406.16 648.648 1403.54 649.432 1400.4 649.432C1397.9 649.432 1395.66 648.872 1393.68 647.752C1391.73 646.632 1390.19 645.048 1389.07 643C1387.95 640.92 1387.39 638.52 1387.39 635.8C1387.39 633.08 1387.94 630.696 1389.02 628.648C1390.11 626.6 1391.63 625.032 1393.58 623.944C1395.57 622.824 1397.84 622.264 1400.4 622.264C1402.9 622.264 1405.1 622.808 1407.02 623.896C1408.94 624.984 1410.42 626.488 1411.44 628.408C1412.5 630.296 1413.02 632.44 1413.02 634.84ZM1408.51 633.928C1408.51 632.264 1408.14 630.84 1407.41 629.656C1406.67 628.44 1405.66 627.528 1404.38 626.92C1403.14 626.28 1401.74 625.96 1400.21 625.96C1398 625.96 1396.11 626.664 1394.54 628.072C1393.01 629.48 1392.13 631.432 1391.9 633.928H1408.51ZM1420.18 649.288C1419.35 649.288 1418.65 649 1418.07 648.424C1417.49 647.848 1417.21 647.144 1417.21 646.312C1417.21 645.48 1417.49 644.776 1418.07 644.2C1418.65 643.624 1419.35 643.336 1420.18 643.336C1420.98 643.336 1421.65 643.624 1422.2 644.2C1422.77 644.776 1423.06 645.48 1423.06 646.312C1423.06 647.144 1422.77 647.848 1422.2 648.424C1421.65 649 1420.98 649.288 1420.18 649.288Z" fill="black"/>
</svg>
