<svg width="1920" height="1078" viewBox="0 0 1920 1078" fill="none" xmlns="http://www.w3.org/2000/svg">
<rect width="1920" height="1078" fill="#F1F1F1"/>
<ellipse cx="496.5" cy="228.5" rx="152.5" ry="146.5" fill="#FFFAFA"/>
<ellipse cx="1122.5" cy="334" rx="212.5" ry="205" fill="#FFFEFE"/>
<path d="M745.5 752.211C745.5 867.086 647.674 960.211 527 960.211C406.326 960.211 308.5 867.086 308.5 752.211C308.5 637.336 406.326 544.211 527 544.211C647.674 544.211 745.5 637.336 745.5 752.211Z" fill="white"/>
<path d="M507.472 208.544V242H503.104V226.832H486.064V242H481.696V208.544H486.064V223.232H503.104V208.544H507.472ZM513.298 228.752C513.298 226.064 513.842 223.712 514.93 221.696C516.018 219.648 517.506 218.064 519.394 216.944C521.314 215.824 523.442 215.264 525.778 215.264C528.082 215.264 530.082 215.76 531.778 216.752C533.474 217.744 534.738 218.992 535.57 220.496V215.696H539.986V242H535.57V237.104C534.706 238.64 533.41 239.92 531.682 240.944C529.986 241.936 528.002 242.432 525.73 242.432C523.394 242.432 521.282 241.856 519.394 240.704C517.506 239.552 516.018 237.936 514.93 235.856C513.842 233.776 513.298 231.408 513.298 228.752ZM535.57 228.8C535.57 226.816 535.17 225.088 534.37 223.616C533.57 222.144 532.482 221.024 531.106 220.256C529.762 219.456 528.274 219.056 526.642 219.056C525.01 219.056 523.522 219.44 522.178 220.208C520.834 220.976 519.762 222.096 518.962 223.568C518.162 225.04 517.762 226.768 517.762 228.752C517.762 230.768 518.162 232.528 518.962 234.032C519.762 235.504 520.834 236.64 522.178 237.44C523.522 238.208 525.01 238.592 526.642 238.592C528.274 238.592 529.762 238.208 531.106 237.44C532.482 236.64 533.57 235.504 534.37 234.032C535.17 232.528 535.57 230.784 535.57 228.8ZM551.736 219.968C552.504 218.464 553.592 217.296 555 216.464C556.44 215.632 558.184 215.216 560.232 215.216V219.728H559.08C554.184 219.728 551.736 222.384 551.736 227.696V242H547.368V215.696H551.736V219.968ZM563.642 228.752C563.642 226.064 564.186 223.712 565.274 221.696C566.362 219.648 567.85 218.064 569.738 216.944C571.658 215.824 573.802 215.264 576.17 215.264C578.218 215.264 580.122 215.744 581.882 216.704C583.642 217.632 584.986 218.864 585.914 220.4V206.48H590.33V242H585.914V237.056C585.05 238.624 583.77 239.92 582.074 240.944C580.378 241.936 578.394 242.432 576.122 242.432C573.786 242.432 571.658 241.856 569.738 240.704C567.85 239.552 566.362 237.936 565.274 235.856C564.186 233.776 563.642 231.408 563.642 228.752ZM585.914 228.8C585.914 226.816 585.514 225.088 584.714 223.616C583.914 222.144 582.826 221.024 581.45 220.256C580.106 219.456 578.618 219.056 576.986 219.056C575.354 219.056 573.866 219.44 572.522 220.208C571.178 220.976 570.106 222.096 569.306 223.568C568.506 225.04 568.106 226.768 568.106 228.752C568.106 230.768 568.506 232.528 569.306 234.032C570.106 235.504 571.178 236.64 572.522 237.44C573.866 238.208 575.354 238.592 576.986 238.592C578.618 238.592 580.106 238.208 581.45 237.44C582.826 236.64 583.914 235.504 584.714 234.032C585.514 232.528 585.914 230.784 585.914 228.8ZM645.549 215.696L637.341 242H632.829L626.493 221.12L620.157 242H615.645L607.389 215.696H611.853L617.901 237.776L624.429 215.696H628.893L635.277 237.824L641.229 215.696H645.549ZM661.356 242.432C658.892 242.432 656.652 241.872 654.636 240.752C652.652 239.632 651.084 238.048 649.932 236C648.812 233.92 648.252 231.52 648.252 228.8C648.252 226.112 648.828 223.744 649.98 221.696C651.164 219.616 652.764 218.032 654.78 216.944C656.796 215.824 659.052 215.264 661.548 215.264C664.044 215.264 666.3 215.824 668.316 216.944C670.332 218.032 671.916 219.6 673.068 221.648C674.252 223.696 674.844 226.08 674.844 228.8C674.844 231.52 674.236 233.92 673.02 236C671.836 238.048 670.22 239.632 668.172 240.752C666.124 241.872 663.852 242.432 661.356 242.432ZM661.356 238.592C662.924 238.592 664.396 238.224 665.772 237.488C667.148 236.752 668.252 235.648 669.084 234.176C669.948 232.704 670.38 230.912 670.38 228.8C670.38 226.688 669.964 224.896 669.132 223.424C668.3 221.952 667.212 220.864 665.868 220.16C664.524 219.424 663.068 219.056 661.5 219.056C659.9 219.056 658.428 219.424 657.084 220.16C655.772 220.864 654.716 221.952 653.916 223.424C653.116 224.896 652.716 226.688 652.716 228.8C652.716 230.944 653.1 232.752 653.868 234.224C654.668 235.696 655.724 236.8 657.036 237.536C658.348 238.24 659.788 238.592 661.356 238.592ZM684.955 219.968C685.723 218.464 686.811 217.296 688.219 216.464C689.659 215.632 691.403 215.216 693.451 215.216V219.728H692.299C687.403 219.728 684.955 222.384 684.955 227.696V242H680.587V215.696H684.955V219.968ZM713.181 242L702.861 230.384V242H698.493V206.48H702.861V227.36L712.989 215.696H719.085L706.701 228.8L719.133 242H713.181Z" fill="black"/>
<ellipse cx="1366.5" cy="851.5" rx="189.5" ry="172.5" fill="white"/>
<path d="M1111.06 404.336C1111.06 407.12 1110.1 409.44 1108.18 411.296C1106.3 413.12 1103.4 414.032 1099.5 414.032H1093.06V428H1088.7V394.544H1099.5C1103.27 394.544 1106.14 395.456 1108.09 397.28C1110.07 399.104 1111.06 401.456 1111.06 404.336ZM1099.5 410.432C1101.93 410.432 1103.72 409.904 1104.87 408.848C1106.02 407.792 1106.6 406.288 1106.6 404.336C1106.6 400.208 1104.23 398.144 1099.5 398.144H1093.06V410.432H1099.5ZM1114.86 414.752C1114.86 412.064 1115.4 409.712 1116.49 407.696C1117.58 405.648 1119.07 404.064 1120.96 402.944C1122.88 401.824 1125 401.264 1127.34 401.264C1129.64 401.264 1131.64 401.76 1133.34 402.752C1135.04 403.744 1136.3 404.992 1137.13 406.496V401.696H1141.55V428H1137.13V423.104C1136.27 424.64 1134.97 425.92 1133.24 426.944C1131.55 427.936 1129.56 428.432 1127.29 428.432C1124.96 428.432 1122.84 427.856 1120.96 426.704C1119.07 425.552 1117.58 423.936 1116.49 421.856C1115.4 419.776 1114.86 417.408 1114.86 414.752ZM1137.13 414.8C1137.13 412.816 1136.73 411.088 1135.93 409.616C1135.13 408.144 1134.04 407.024 1132.67 406.256C1131.32 405.456 1129.84 405.056 1128.2 405.056C1126.57 405.056 1125.08 405.44 1123.74 406.208C1122.4 406.976 1121.32 408.096 1120.52 409.568C1119.72 411.04 1119.32 412.768 1119.32 414.752C1119.32 416.768 1119.72 418.528 1120.52 420.032C1121.32 421.504 1122.4 422.64 1123.74 423.44C1125.08 424.208 1126.57 424.592 1128.2 424.592C1129.84 424.592 1131.32 424.208 1132.67 423.44C1134.04 422.64 1135.13 421.504 1135.93 420.032C1136.73 418.528 1137.13 416.784 1137.13 414.8ZM1158.24 428.432C1156.23 428.432 1154.42 428.096 1152.82 427.424C1151.22 426.72 1149.95 425.76 1149.03 424.544C1148.1 423.296 1147.59 421.872 1147.49 420.272H1152C1152.13 421.584 1152.74 422.656 1153.83 423.488C1154.95 424.32 1156.4 424.736 1158.19 424.736C1159.86 424.736 1161.17 424.368 1162.13 423.632C1163.09 422.896 1163.57 421.968 1163.57 420.848C1163.57 419.696 1163.06 418.848 1162.03 418.304C1161.01 417.728 1159.43 417.168 1157.28 416.624C1155.33 416.112 1153.73 415.6 1152.48 415.088C1151.27 414.544 1150.21 413.76 1149.31 412.736C1148.45 411.68 1148.02 410.304 1148.02 408.608C1148.02 407.264 1148.42 406.032 1149.22 404.912C1150.02 403.792 1151.15 402.912 1152.63 402.272C1154.1 401.6 1155.78 401.264 1157.67 401.264C1160.58 401.264 1162.93 402 1164.72 403.472C1166.51 404.944 1167.47 406.96 1167.6 409.52H1163.23C1163.14 408.144 1162.58 407.04 1161.55 406.208C1160.56 405.376 1159.22 404.96 1157.52 404.96C1155.95 404.96 1154.71 405.296 1153.78 405.968C1152.85 406.64 1152.39 407.52 1152.39 408.608C1152.39 409.472 1152.66 410.192 1153.2 410.768C1153.78 411.312 1154.48 411.76 1155.31 412.112C1156.18 412.432 1157.36 412.8 1158.87 413.216C1160.75 413.728 1162.29 414.24 1163.47 414.752C1164.66 415.232 1165.67 415.968 1166.5 416.96C1167.36 417.952 1167.81 419.248 1167.84 420.848C1167.84 422.288 1167.44 423.584 1166.64 424.736C1165.84 425.888 1164.71 426.8 1163.23 427.472C1161.79 428.112 1160.13 428.432 1158.24 428.432ZM1183.32 428.432C1181.3 428.432 1179.5 428.096 1177.9 427.424C1176.3 426.72 1175.03 425.76 1174.1 424.544C1173.18 423.296 1172.66 421.872 1172.57 420.272H1177.08C1177.21 421.584 1177.82 422.656 1178.9 423.488C1180.02 424.32 1181.48 424.736 1183.27 424.736C1184.94 424.736 1186.25 424.368 1187.21 423.632C1188.17 422.896 1188.65 421.968 1188.65 420.848C1188.65 419.696 1188.14 418.848 1187.11 418.304C1186.09 417.728 1184.5 417.168 1182.36 416.624C1180.41 416.112 1178.81 415.6 1177.56 415.088C1176.34 414.544 1175.29 413.76 1174.39 412.736C1173.53 411.68 1173.1 410.304 1173.1 408.608C1173.1 407.264 1173.5 406.032 1174.3 404.912C1175.1 403.792 1176.23 402.912 1177.7 402.272C1179.18 401.6 1180.86 401.264 1182.74 401.264C1185.66 401.264 1188.01 402 1189.8 403.472C1191.59 404.944 1192.55 406.96 1192.68 409.52H1188.31C1188.22 408.144 1187.66 407.04 1186.63 406.208C1185.64 405.376 1184.3 404.96 1182.6 404.96C1181.03 404.96 1179.78 405.296 1178.86 405.968C1177.93 406.64 1177.46 407.52 1177.46 408.608C1177.46 409.472 1177.74 410.192 1178.28 410.768C1178.86 411.312 1179.56 411.76 1180.39 412.112C1181.26 412.432 1182.44 412.8 1183.94 413.216C1185.83 413.728 1187.37 414.24 1188.55 414.752C1189.74 415.232 1190.74 415.968 1191.58 416.96C1192.44 417.952 1192.89 419.248 1192.92 420.848C1192.92 422.288 1192.52 423.584 1191.72 424.736C1190.92 425.888 1189.78 426.8 1188.31 427.472C1186.87 428.112 1185.21 428.432 1183.32 428.432ZM1201.34 397.424C1200.51 397.424 1199.81 397.136 1199.23 396.56C1198.65 395.984 1198.37 395.28 1198.37 394.448C1198.37 393.616 1198.65 392.912 1199.23 392.336C1199.81 391.76 1200.51 391.472 1201.34 391.472C1202.14 391.472 1202.81 391.76 1203.36 392.336C1203.93 392.912 1204.22 393.616 1204.22 394.448C1204.22 395.28 1203.93 395.984 1203.36 396.56C1202.81 397.136 1202.14 397.424 1201.34 397.424ZM1203.45 401.696V428H1199.09V401.696H1203.45ZM1222.37 428.432C1219.91 428.432 1217.67 427.872 1215.65 426.752C1213.67 425.632 1212.1 424.048 1210.95 422C1209.83 419.92 1209.27 417.52 1209.27 414.8C1209.27 412.112 1209.84 409.744 1211 407.696C1212.18 405.616 1213.78 404.032 1215.8 402.944C1217.81 401.824 1220.07 401.264 1222.56 401.264C1225.06 401.264 1227.32 401.824 1229.33 402.944C1231.35 404.032 1232.93 405.6 1234.08 407.648C1235.27 409.696 1235.86 412.08 1235.86 414.8C1235.86 417.52 1235.25 419.92 1234.04 422C1232.85 424.048 1231.24 425.632 1229.19 426.752C1227.14 427.872 1224.87 428.432 1222.37 428.432ZM1222.37 424.592C1223.94 424.592 1225.41 424.224 1226.79 423.488C1228.16 422.752 1229.27 421.648 1230.1 420.176C1230.96 418.704 1231.4 416.912 1231.4 414.8C1231.4 412.688 1230.98 410.896 1230.15 409.424C1229.32 407.952 1228.23 406.864 1226.88 406.16C1225.54 405.424 1224.08 405.056 1222.52 405.056C1220.92 405.056 1219.44 405.424 1218.1 406.16C1216.79 406.864 1215.73 407.952 1214.93 409.424C1214.13 410.896 1213.73 412.688 1213.73 414.8C1213.73 416.944 1214.12 418.752 1214.88 420.224C1215.68 421.696 1216.74 422.8 1218.05 423.536C1219.36 424.24 1220.8 424.592 1222.37 424.592ZM1254.42 401.216C1257.62 401.216 1260.21 402.192 1262.19 404.144C1264.18 406.064 1265.17 408.848 1265.17 412.496V428H1260.85V413.12C1260.85 410.496 1260.19 408.496 1258.88 407.12C1257.57 405.712 1255.78 405.008 1253.51 405.008C1251.2 405.008 1249.36 405.728 1247.99 407.168C1246.64 408.608 1245.97 410.704 1245.97 413.456V428H1241.6V401.696H1245.97V405.44C1246.83 404.096 1248 403.056 1249.47 402.32C1250.98 401.584 1252.63 401.216 1254.42 401.216ZM1273.7 428.288C1272.87 428.288 1272.16 428 1271.59 427.424C1271.01 426.848 1270.72 426.144 1270.72 425.312C1270.72 424.48 1271.01 423.776 1271.59 423.2C1272.16 422.624 1272.87 422.336 1273.7 422.336C1274.5 422.336 1275.17 422.624 1275.71 423.2C1276.29 423.776 1276.58 424.48 1276.58 425.312C1276.58 426.144 1276.29 426.848 1275.71 427.424C1275.17 428 1274.5 428.288 1273.7 428.288Z" fill="black"/>
<path d="M399.064 718.544V752H394.696V718.544H399.064ZM419.325 725.216C422.525 725.216 425.117 726.192 427.101 728.144C429.085 730.064 430.077 732.848 430.077 736.496V752H425.757V737.12C425.757 734.496 425.101 732.496 423.789 731.12C422.477 729.712 420.685 729.008 418.413 729.008C416.109 729.008 414.269 729.728 412.893 731.168C411.549 732.608 410.877 734.704 410.877 737.456V752H406.509V725.696H410.877V729.44C411.741 728.096 412.909 727.056 414.381 726.32C415.885 725.584 417.533 725.216 419.325 725.216ZM442.54 729.296V744.8C442.54 746.08 442.812 746.992 443.356 747.536C443.9 748.048 444.844 748.304 446.188 748.304H449.404V752H445.468C443.036 752 441.212 751.44 439.996 750.32C438.78 749.2 438.172 747.36 438.172 744.8V729.296H434.764V725.696H438.172V719.072H442.54V725.696H449.404V729.296H442.54ZM478.696 737.84C478.696 738.672 478.648 739.552 478.552 740.48H457.528C457.688 743.072 458.568 745.104 460.168 746.576C461.8 748.016 463.768 748.736 466.072 748.736C467.96 748.736 469.528 748.304 470.776 747.44C472.056 746.544 472.952 745.36 473.464 743.888H478.168C477.464 746.416 476.056 748.48 473.944 750.08C471.832 751.648 469.208 752.432 466.072 752.432C463.576 752.432 461.336 751.872 459.352 750.752C457.4 749.632 455.864 748.048 454.744 746C453.624 743.92 453.064 741.52 453.064 738.8C453.064 736.08 453.608 733.696 454.696 731.648C455.784 729.6 457.304 728.032 459.256 726.944C461.24 725.824 463.512 725.264 466.072 725.264C468.568 725.264 470.776 725.808 472.696 726.896C474.616 727.984 476.088 729.488 477.112 731.408C478.168 733.296 478.696 735.44 478.696 737.84ZM474.184 736.928C474.184 735.264 473.816 733.84 473.08 732.656C472.344 731.44 471.336 730.528 470.056 729.92C468.808 729.28 467.416 728.96 465.88 728.96C463.672 728.96 461.784 729.664 460.216 731.072C458.68 732.48 457.8 734.432 457.576 736.928H474.184ZM495.31 725.264C497.582 725.264 499.566 725.76 501.262 726.752C502.99 727.744 504.27 728.992 505.102 730.496V725.696H509.518V752.576C509.518 754.976 509.006 757.104 507.982 758.96C506.958 760.848 505.486 762.32 503.566 763.376C501.678 764.432 499.47 764.96 496.942 764.96C493.486 764.96 490.606 764.144 488.302 762.512C485.998 760.88 484.638 758.656 484.222 755.84H488.542C489.022 757.44 490.014 758.72 491.518 759.68C493.022 760.672 494.83 761.168 496.942 761.168C499.342 761.168 501.294 760.416 502.798 758.912C504.334 757.408 505.102 755.296 505.102 752.576V747.056C504.238 748.592 502.958 749.872 501.262 750.896C499.566 751.92 497.582 752.432 495.31 752.432C492.974 752.432 490.846 751.856 488.926 750.704C487.038 749.552 485.55 747.936 484.462 745.856C483.374 743.776 482.83 741.408 482.83 738.752C482.83 736.064 483.374 733.712 484.462 731.696C485.55 729.648 487.038 728.064 488.926 726.944C490.846 725.824 492.974 725.264 495.31 725.264ZM505.102 738.8C505.102 736.816 504.702 735.088 503.902 733.616C503.102 732.144 502.014 731.024 500.638 730.256C499.294 729.456 497.806 729.056 496.174 729.056C494.542 729.056 493.054 729.44 491.71 730.208C490.366 730.976 489.294 732.096 488.494 733.568C487.694 735.04 487.294 736.768 487.294 738.752C487.294 740.768 487.694 742.528 488.494 744.032C489.294 745.504 490.366 746.64 491.71 747.44C493.054 748.208 494.542 748.592 496.174 748.592C497.806 748.592 499.294 748.208 500.638 747.44C502.014 746.64 503.102 745.504 503.902 744.032C504.702 742.528 505.102 740.784 505.102 738.8ZM521.267 729.968C522.035 728.464 523.123 727.296 524.531 726.464C525.971 725.632 527.715 725.216 529.763 725.216V729.728H528.611C523.715 729.728 521.267 732.384 521.267 737.696V752H516.899V725.696H521.267V729.968ZM537.061 721.424C536.229 721.424 535.525 721.136 534.949 720.56C534.373 719.984 534.085 719.28 534.085 718.448C534.085 717.616 534.373 716.912 534.949 716.336C535.525 715.76 536.229 715.472 537.061 715.472C537.861 715.472 538.533 715.76 539.077 716.336C539.653 716.912 539.941 717.616 539.941 718.448C539.941 719.28 539.653 719.984 539.077 720.56C538.533 721.136 537.861 721.424 537.061 721.424ZM539.173 725.696V752H534.805V725.696H539.173ZM551.946 729.296V744.8C551.946 746.08 552.218 746.992 552.762 747.536C553.306 748.048 554.25 748.304 555.594 748.304H558.81V752H554.874C552.442 752 550.618 751.44 549.402 750.32C548.186 749.2 547.578 747.36 547.578 744.8V729.296H544.17V725.696H547.578V719.072H551.946V725.696H558.81V729.296H551.946ZM586.758 725.696L570.918 764.384H566.406L571.59 751.712L560.982 725.696H565.83L574.086 747.008L582.246 725.696H586.758ZM592.541 752.288C591.709 752.288 591.005 752 590.429 751.424C589.853 750.848 589.565 750.144 589.565 749.312C589.565 748.48 589.853 747.776 590.429 747.2C591.005 746.624 591.709 746.336 592.541 746.336C593.341 746.336 594.013 746.624 594.557 747.2C595.133 747.776 595.421 748.48 595.421 749.312C595.421 750.144 595.133 750.848 594.557 751.424C594.013 752 593.341 752.288 592.541 752.288Z" fill="black"/>
<path d="M1302.06 862.448H1313.78V866H1297.7V832.544H1302.06V862.448ZM1329.89 866.432C1327.42 866.432 1325.18 865.872 1323.17 864.752C1321.18 863.632 1319.61 862.048 1318.46 860C1317.34 857.92 1316.78 855.52 1316.78 852.8C1316.78 850.112 1317.36 847.744 1318.51 845.696C1319.69 843.616 1321.29 842.032 1323.31 840.944C1325.33 839.824 1327.58 839.264 1330.08 839.264C1332.57 839.264 1334.83 839.824 1336.85 840.944C1338.86 842.032 1340.45 843.6 1341.6 845.648C1342.78 847.696 1343.37 850.08 1343.37 852.8C1343.37 855.52 1342.77 857.92 1341.55 860C1340.37 862.048 1338.75 863.632 1336.7 864.752C1334.65 865.872 1332.38 866.432 1329.89 866.432ZM1329.89 862.592C1331.45 862.592 1332.93 862.224 1334.3 861.488C1335.68 860.752 1336.78 859.648 1337.61 858.176C1338.48 856.704 1338.91 854.912 1338.91 852.8C1338.91 850.688 1338.49 848.896 1337.66 847.424C1336.83 845.952 1335.74 844.864 1334.4 844.16C1333.05 843.424 1331.6 843.056 1330.03 843.056C1328.43 843.056 1326.96 843.424 1325.61 844.16C1324.3 844.864 1323.25 845.952 1322.45 847.424C1321.65 848.896 1321.25 850.688 1321.25 852.8C1321.25 854.944 1321.63 856.752 1322.4 858.224C1323.2 859.696 1324.25 860.8 1325.57 861.536C1326.88 862.24 1328.32 862.592 1329.89 862.592ZM1358.91 861.968L1367.07 839.696H1371.73L1361.41 866H1356.32L1346 839.696H1350.7L1358.91 861.968ZM1400.02 851.84C1400.02 852.672 1399.98 853.552 1399.88 854.48H1378.86C1379.02 857.072 1379.9 859.104 1381.5 860.576C1383.13 862.016 1385.1 862.736 1387.4 862.736C1389.29 862.736 1390.86 862.304 1392.1 861.44C1393.38 860.544 1394.28 859.36 1394.79 857.888H1399.5C1398.79 860.416 1397.38 862.48 1395.27 864.08C1393.16 865.648 1390.54 866.432 1387.4 866.432C1384.9 866.432 1382.66 865.872 1380.68 864.752C1378.73 863.632 1377.19 862.048 1376.07 860C1374.95 857.92 1374.39 855.52 1374.39 852.8C1374.39 850.08 1374.94 847.696 1376.02 845.648C1377.11 843.6 1378.63 842.032 1380.58 840.944C1382.57 839.824 1384.84 839.264 1387.4 839.264C1389.9 839.264 1392.1 839.808 1394.02 840.896C1395.94 841.984 1397.42 843.488 1398.44 845.408C1399.5 847.296 1400.02 849.44 1400.02 851.84ZM1395.51 850.928C1395.51 849.264 1395.14 847.84 1394.41 846.656C1393.67 845.44 1392.66 844.528 1391.38 843.92C1390.14 843.28 1388.74 842.96 1387.21 842.96C1385 842.96 1383.11 843.664 1381.54 845.072C1380.01 846.48 1379.13 848.432 1378.9 850.928H1395.51ZM1407.18 866.288C1406.35 866.288 1405.65 866 1405.07 865.424C1404.49 864.848 1404.21 864.144 1404.21 863.312C1404.21 862.48 1404.49 861.776 1405.07 861.2C1405.65 860.624 1406.35 860.336 1407.18 860.336C1407.98 860.336 1408.65 860.624 1409.2 861.2C1409.77 861.776 1410.06 862.48 1410.06 863.312C1410.06 864.144 1409.77 864.848 1409.2 865.424C1408.65 866 1407.98 866.288 1407.18 866.288Z" fill="black"/>
</svg>
